<mxfile host="app.diagrams.net" modified="2023-10-12T09:25:59.898Z" agent="Mozilla/5.0 (Windows NT 10.0; Win64; x64) AppleWebKit/537.36 (KHTML, like Gecko) Chrome/117.0.0.0 Safari/537.36" etag="Pih-tzDVzzEOGDKtVsu9" version="22.0.4" type="device">
  <diagram name="Page-1" id="B1VNFg72tT5GH3XmFz-d">
    <mxGraphModel dx="1400" dy="712" grid="1" gridSize="10" guides="1" tooltips="1" connect="1" arrows="1" fold="1" page="1" pageScale="1" pageWidth="827" pageHeight="1169" math="0" shadow="0">
      <root>
        <mxCell id="0" />
        <mxCell id="1" parent="0" />
        <mxCell id="PWm71WJWUv9yXcT3ezjy-2" value="Actor" style="shape=umlActor;verticalLabelPosition=bottom;verticalAlign=top;html=1;outlineConnect=0;" vertex="1" parent="1">
          <mxGeometry x="50" y="175" width="30" height="60" as="geometry" />
        </mxCell>
        <mxCell id="PWm71WJWUv9yXcT3ezjy-4" value="" style="rounded=0;whiteSpace=wrap;html=1;" vertex="1" parent="1">
          <mxGeometry x="400" y="150" width="320" height="140" as="geometry" />
        </mxCell>
        <mxCell id="PWm71WJWUv9yXcT3ezjy-5" value="" style="rounded=0;whiteSpace=wrap;html=1;" vertex="1" parent="1">
          <mxGeometry x="180" y="175" width="170" height="60" as="geometry" />
        </mxCell>
        <mxCell id="PWm71WJWUv9yXcT3ezjy-6" value="Endpoints" style="text;html=1;strokeColor=none;fillColor=none;align=center;verticalAlign=middle;whiteSpace=wrap;rounded=0;" vertex="1" parent="1">
          <mxGeometry x="235" y="135" width="60" height="30" as="geometry" />
        </mxCell>
        <mxCell id="PWm71WJWUv9yXcT3ezjy-18" style="edgeStyle=orthogonalEdgeStyle;rounded=0;orthogonalLoop=1;jettySize=auto;html=1;exitX=1;exitY=0.5;exitDx=0;exitDy=0;endArrow=none;endFill=0;" edge="1" parent="1" source="PWm71WJWUv9yXcT3ezjy-7" target="PWm71WJWUv9yXcT3ezjy-10">
          <mxGeometry relative="1" as="geometry" />
        </mxCell>
        <mxCell id="PWm71WJWUv9yXcT3ezjy-7" value="/emisison-calculation" style="text;html=1;strokeColor=default;fillColor=none;align=center;verticalAlign=middle;whiteSpace=wrap;rounded=0;" vertex="1" parent="1">
          <mxGeometry x="205" y="190" width="120" height="30" as="geometry" />
        </mxCell>
        <mxCell id="PWm71WJWUv9yXcT3ezjy-8" value="Logic" style="text;html=1;strokeColor=none;fillColor=none;align=center;verticalAlign=middle;whiteSpace=wrap;rounded=0;" vertex="1" parent="1">
          <mxGeometry x="520" y="110" width="60" height="30" as="geometry" />
        </mxCell>
        <mxCell id="PWm71WJWUv9yXcT3ezjy-9" value="GetEmissionFactor&amp;nbsp;" style="text;html=1;strokeColor=default;fillColor=none;align=center;verticalAlign=middle;whiteSpace=wrap;rounded=0;" vertex="1" parent="1">
          <mxGeometry x="590" y="165" width="120" height="30" as="geometry" />
        </mxCell>
        <mxCell id="PWm71WJWUv9yXcT3ezjy-16" style="edgeStyle=orthogonalEdgeStyle;rounded=0;orthogonalLoop=1;jettySize=auto;html=1;exitX=1;exitY=0.5;exitDx=0;exitDy=0;entryX=0;entryY=0.5;entryDx=0;entryDy=0;endArrow=none;endFill=0;" edge="1" parent="1" source="PWm71WJWUv9yXcT3ezjy-10" target="PWm71WJWUv9yXcT3ezjy-9">
          <mxGeometry relative="1" as="geometry" />
        </mxCell>
        <mxCell id="PWm71WJWUv9yXcT3ezjy-17" style="edgeStyle=orthogonalEdgeStyle;rounded=0;orthogonalLoop=1;jettySize=auto;html=1;exitX=1;exitY=0.5;exitDx=0;exitDy=0;entryX=0;entryY=0.5;entryDx=0;entryDy=0;endArrow=none;endFill=0;" edge="1" parent="1" source="PWm71WJWUv9yXcT3ezjy-10" target="PWm71WJWUv9yXcT3ezjy-11">
          <mxGeometry relative="1" as="geometry" />
        </mxCell>
        <mxCell id="PWm71WJWUv9yXcT3ezjy-10" value="emissionCalculation" style="text;html=1;strokeColor=default;fillColor=none;align=center;verticalAlign=middle;whiteSpace=wrap;rounded=0;" vertex="1" parent="1">
          <mxGeometry x="420" y="190" width="120" height="30" as="geometry" />
        </mxCell>
        <mxCell id="PWm71WJWUv9yXcT3ezjy-11" value="unitsConverter" style="text;html=1;strokeColor=default;fillColor=none;align=center;verticalAlign=middle;whiteSpace=wrap;rounded=0;" vertex="1" parent="1">
          <mxGeometry x="590" y="210" width="120" height="30" as="geometry" />
        </mxCell>
        <mxCell id="PWm71WJWUv9yXcT3ezjy-12" value="" style="rounded=0;whiteSpace=wrap;html=1;" vertex="1" parent="1">
          <mxGeometry x="780" y="150" width="280" height="140" as="geometry" />
        </mxCell>
        <mxCell id="PWm71WJWUv9yXcT3ezjy-13" value="Models" style="text;html=1;strokeColor=none;fillColor=none;align=center;verticalAlign=middle;whiteSpace=wrap;rounded=0;" vertex="1" parent="1">
          <mxGeometry x="890" y="110" width="60" height="30" as="geometry" />
        </mxCell>
        <mxCell id="PWm71WJWUv9yXcT3ezjy-15" style="edgeStyle=orthogonalEdgeStyle;rounded=0;orthogonalLoop=1;jettySize=auto;html=1;entryX=1;entryY=0.5;entryDx=0;entryDy=0;endArrow=none;endFill=0;" edge="1" parent="1" source="PWm71WJWUv9yXcT3ezjy-14" target="PWm71WJWUv9yXcT3ezjy-9">
          <mxGeometry relative="1" as="geometry">
            <Array as="points">
              <mxPoint x="820" y="180" />
              <mxPoint x="820" y="180" />
            </Array>
          </mxGeometry>
        </mxCell>
        <mxCell id="PWm71WJWUv9yXcT3ezjy-14" value="EmissionFactor" style="text;html=1;strokeColor=default;fillColor=none;align=center;verticalAlign=middle;whiteSpace=wrap;rounded=0;" vertex="1" parent="1">
          <mxGeometry x="860" y="165" width="120" height="30" as="geometry" />
        </mxCell>
      </root>
    </mxGraphModel>
  </diagram>
</mxfile>
